<?xml version="1.0" encoding="iso-8859-1"?>
<!-- Generator: Adobe Illustrator 19.0.0, SVG Export Plug-In . SVG Version: 6.00 Build 0)  -->
<svg fill="#273582" width="128" height="128" xmlns="http://www.w3.org/2000/svg" xmlns:xlink="http://www.w3.org/1999/xlink" x="0px" y="0px"
	 viewBox="0 0 482.547 482.547" style="enable-background:new 0 0 482.547 482.547;" xml:space="preserve">
<g>
	<g>
		<path d="M194.075,375.93c-0.168-1.712-0.472-3.384-0.728-5.064c-0.2-1.312-0.344-2.632-0.6-3.936
			c-0.44-2.272-1.024-4.488-1.624-6.704c-0.184-0.672-0.32-1.36-0.52-2.032c-0.712-2.416-1.552-4.768-2.448-7.096
			c-0.16-0.408-0.264-0.832-0.424-1.24c-0.016-0.048-0.056-0.088-0.08-0.136c-9.616-24.024-28.624-43.288-52.512-53.176
			c-0.056-0.024-0.096-0.064-0.144-0.08c-0.376-0.152-0.776-0.248-1.152-0.392c-2.872-1.144-5.808-2.144-8.808-3.008
			c-0.656-0.184-1.32-0.336-1.976-0.512c-2.936-0.776-5.92-1.416-8.96-1.912c-0.464-0.072-0.928-0.144-1.392-0.216
			c-3.352-0.496-6.752-0.824-10.2-0.96c-0.104-0.008-0.208-0.016-0.32-0.016c-1.224-0.04-2.416-0.176-3.64-0.176
			c-14.168,0-27.592,3.168-39.712,8.704c-0.048,0.024-0.096,0.048-0.144,0.064c-3.176,1.456-6.248,3.088-9.224,4.872
			c-0.216,0.128-0.448,0.224-0.664,0.352c-0.072,0.04-0.112,0.12-0.184,0.16c-27.568,16.896-46.072,47.216-46.072,81.848
			c0,0.4,0.056,0.784,0.064,1.184c0,0.016-0.008,0.024-0.008,0.04c0,0.08,0.016,0.152,0.016,0.24
			c0.064,3.96,0.408,7.84,0.928,11.664c0.08,0.592,0.176,1.168,0.272,1.76c0.592,3.776,1.376,7.472,2.392,11.088
			c0.04,0.136,0.064,0.272,0.104,0.416c2.256,7.864,5.496,15.288,9.56,22.184c0.256,0.44,0.528,0.872,0.8,1.312
			c1.856,3.032,3.856,5.952,6.024,8.752c0.288,0.376,0.56,0.768,0.856,1.144c2.432,3.048,5.024,5.952,7.808,8.68
			c0.424,0.416,0.888,0.792,1.32,1.2c2.32,2.192,4.744,4.256,7.264,6.216c0.864,0.672,1.744,1.328,2.632,1.968
			c2.176,1.568,4.416,3.024,6.72,4.408c0.112,0.072,0.2,0.176,0.32,0.248c0.328,0.192,0.656,0.384,0.992,0.576
			c0.416,0.272,0.832,0.536,1.264,0.784c0.024,0.016,0.048,0.032,0.072,0.048c0.016,0.008,0.032,0.008,0.056,0.024
			c0.088,0.048,0.176,0.08,0.264,0.128c3.56,1.968,7.288,3.664,11.104,5.176c0.352,0.136,0.704,0.256,1.056,0.392
			c3.072,1.176,6.216,2.184,9.424,3.04c0.752,0.2,1.512,0.4,2.272,0.584c2.872,0.688,5.8,1.24,8.768,1.664
			c0.84,0.12,1.672,0.288,2.52,0.384c3.656,0.424,7.36,0.696,11.136,0.696c3.832,0,7.592-0.288,11.312-0.728
			c0.28-0.032,0.568-0.096,0.856-0.128c3.68-0.472,7.288-1.168,10.824-2.04c0.104-0.024,0.208-0.032,0.304-0.056
			c0.056-0.016,0.096-0.048,0.144-0.056c30.92-7.808,55.856-30.592,66.672-60.208c0.024-0.072,0.08-0.128,0.104-0.2
			c0.064-0.184,0.112-0.376,0.176-0.56c0.784-2.208,1.496-4.448,2.12-6.728c0.176-0.64,0.336-1.28,0.496-1.92
			c0.504-2.008,0.976-4.032,1.352-6.088c0.232-1.248,0.392-2.504,0.576-3.76c0.216-1.544,0.472-3.064,0.616-4.632
			c0.28-2.968,0.448-5.928,0.448-8.896C194.547,382.146,194.379,379.034,194.075,375.93z M133.635,313.49
			c16.576,8.136,29.92,21.8,37.624,38.616l-19.264,30.304l-31.336-18.8l-12.384-24.76L133.635,313.49z M64.131,313.162
			c1.816-0.872,3.648-1.68,5.52-2.408c0.256-0.096,0.512-0.184,0.768-0.28c7.888-2.968,16.208-4.632,24.576-5.024
			c0.72-0.032,1.44-0.096,2.16-0.112c1.408-0.032,2.816,0.024,4.224,0.072c1.192,0.04,2.384,0.088,3.56,0.184
			c1.232,0.096,2.456,0.232,3.68,0.384c1.32,0.168,2.624,0.368,3.92,0.6c1.136,0.2,2.272,0.4,3.4,0.656
			c0.36,0.08,0.704,0.192,1.064,0.272l-21.768,21.768H71.491l-7.92-15.84C63.755,313.346,63.947,313.258,64.131,313.162z
			 M71.491,345.274h22.112l10.808,21.608l-21.864,16.392l-21.856-16.392L71.491,345.274z M49.915,321.898l7.688,15.376l-12.904,25.8
			L19.451,373.89C22.483,352.786,33.739,334.338,49.915,321.898z M55.131,452.37c-0.168-0.104-0.344-0.2-0.504-0.304
			c-4.896-3.224-9.376-6.952-13.384-11.088c-0.384-0.392-0.736-0.816-1.104-1.216c-1.64-1.76-3.208-3.576-4.68-5.472
			c-0.344-0.44-0.672-0.896-1.008-1.352c-1.488-2.008-2.896-4.072-4.184-6.2c-0.2-0.32-0.392-0.64-0.584-0.968
			c-6.032-10.256-9.792-21.84-10.792-33.96c-0.008-0.088-0.008-0.168-0.016-0.256l30.568-13.104l25.856,19.392l6.472,32.336
			L55.131,452.37z M113.267,463.834c-3.28,0.632-6.52,0.968-9.736,1.192c-0.88,0.056-1.768,0.112-2.656,0.136
			c-2.48,0.08-4.936,0.016-7.376-0.136c-0.888-0.056-1.792-0.048-2.68-0.136c-3.176-0.312-6.32-0.808-9.424-1.504
			c-0.528-0.112-1.032-0.272-1.552-0.4c-2.888-0.712-5.752-1.56-8.568-2.592c-0.184-0.064-0.36-0.136-0.544-0.2l23.368-19.472
			l25.8-5.16L113.267,463.834z M96.819,423.858l-4.08-20.408l-1.36-6.8l23.664-17.744l27.784,16.664l-16.848,22.456L96.819,423.858z
			 M130.995,458.33l6.16-26.224l30.064-6.008C158.779,440.242,146.147,451.57,130.995,458.33z M177.747,395.954
			c-0.08,0.584-0.176,1.168-0.272,1.752c-0.568,3.52-1.32,7.024-2.368,10.496l-25.608,5.12l11.448-15.248
			c0.024-0.024,0.024-0.064,0.04-0.088l0.312-0.416l16.096-25.304c0.144,0.872,0.288,1.744,0.4,2.624
			c0.136,1.008,0.288,2.008,0.376,3.016c0.224,2.432,0.376,4.88,0.376,7.368C178.547,388.842,178.243,392.402,177.747,395.954z"/>
	</g>
</g>
<g>
	<g>
		<path d="M481.531,334.954c-0.4-2.248-0.92-4.472-1.584-6.68c-0.152-0.496-0.312-0.984-0.472-1.472
			c-0.824-2.536-1.824-5.04-2.992-7.504c-0.04-0.08-0.072-0.168-0.112-0.248c-4.768-9.96-12.192-19.336-22.304-27.776
			c-0.32-0.264-0.696-0.376-1.04-0.584c-14.648-11.944-33.952-21.352-56.152-27.096c0.536-0.208,1.056-0.448,1.584-0.664
			c0.608-0.248,1.208-0.504,1.816-0.76c19.68-8.464,37.248-21.544,51.152-38.4c0.016-0.024,0.032-0.04,0.056-0.064
			c2.744-3.336,5.392-6.768,7.84-10.392c0.104-0.152,0.144-0.32,0.232-0.48c14.504-21.632,22.992-47.616,22.992-75.56
			c0-3.336-0.208-6.848-0.536-10.528c-0.192-2.464-0.456-4.896-0.776-7.32c-0.016-0.104-0.016-0.184-0.032-0.28
			c-0.008-0.032-0.024-0.064-0.024-0.096c-6.88-51.032-42.096-93.08-89.312-109.84c-0.08-0.032-0.144-0.088-0.224-0.12
			c-0.2-0.072-0.408-0.112-0.608-0.184c-3.024-1.048-6.088-1.976-9.2-2.816c-0.968-0.264-1.936-0.504-2.904-0.752
			c-2.712-0.664-5.44-1.28-8.208-1.784c-1.824-0.336-3.648-0.576-5.472-0.84c-2.08-0.288-4.144-0.616-6.248-0.808
			c-4.144-0.392-8.296-0.632-12.456-0.632c-4.096,0-8.16,0.248-12.192,0.616c-1.352,0.12-2.696,0.288-4.04,0.448
			c-2.696,0.328-5.368,0.744-8.024,1.232c-1.48,0.272-2.968,0.504-4.432,0.816c-3.4,0.744-6.768,1.6-10.08,2.6
			c-2.032,0.608-4.008,1.328-6,2.024c-1.536,0.544-3.064,1.088-4.576,1.68c-2.144,0.84-4.272,1.712-6.36,2.664
			c-1.152,0.52-2.28,1.096-3.416,1.648c-4.16,2.008-8.184,4.208-12.08,6.624c-0.832,0.512-1.688,0.992-2.512,1.528
			c-2,1.296-3.928,2.664-5.856,4.064c-1.136,0.824-2.256,1.664-3.368,2.52c-1.816,1.4-3.616,2.816-5.36,4.304
			c-1.128,0.968-2.208,2-3.304,3.008c-2.816,2.576-5.512,5.256-8.104,8.056c-1.144,1.24-2.304,2.464-3.408,3.744
			c-1.392,1.616-2.72,3.28-4.032,4.968c-1.016,1.304-2,2.624-2.968,3.968c-1.28,1.776-2.56,3.544-3.76,5.376
			c-0.72,1.104-1.376,2.264-2.064,3.392c-2.344,3.824-4.488,7.76-6.448,11.816c-0.392,0.816-0.84,1.6-1.224,2.432
			c-0.024,0.056-0.016,0.128-0.04,0.184c-7.856,17.168-12.352,36.192-12.352,56.288c0,3.112,0.264,6.16,0.464,9.224
			c0,0.024-0.008,0.056-0.008,0.08c0,0.056,0.016,0.104,0.016,0.16c0.296,4.24,0.792,8.408,1.464,12.536
			c0.04,0.232,0.064,0.464,0.104,0.688c0.688,4.048,1.552,8.024,2.584,11.944c0.072,0.288,0.144,0.568,0.224,0.856
			c1.048,3.872,2.264,7.664,3.64,11.384c0.112,0.296,0.216,0.6,0.328,0.896c1.392,3.696,2.944,7.312,4.64,10.848
			c0.136,0.288,0.28,0.584,0.416,0.872c1.728,3.528,3.592,6.96,5.608,10.312c0.152,0.256,0.312,0.512,0.464,0.768
			c1.328,2.168,2.624,4.352,4.064,6.44c0.064,0.104,0.096,0.224,0.168,0.328c1.976,2.848,4.08,5.576,6.24,8.248
			c0.552,0.672,1.112,1.336,1.672,2c2.392,2.84,4.864,5.6,7.464,8.216c0.136,0.136,0.264,0.28,0.4,0.416
			c2.736,2.728,5.6,5.288,8.544,7.768c0.68,0.568,1.352,1.136,2.04,1.696c2.904,2.352,5.88,4.6,8.952,6.696
			c0.632,0.432,1.296,0.824,1.936,1.248c2.616,1.72,5.296,3.344,8.024,4.88c0.912,0.512,1.808,1.048,2.736,1.544
			c3.08,1.64,6.232,3.152,9.44,4.552c1.144,0.504,2.304,0.968,3.464,1.44c0.224,0.088,0.44,0.184,0.664,0.272
			c-13.28,3.432-25.584,8.128-36.424,13.944L66.883,122.346c-8.904-7.16-20.056-10.248-31.36-8.688
			c-11.32,1.552-21.216,7.528-27.856,16.832c-6.472,9.064-8.968,20.096-7.024,31.064c1.928,10.96,8.056,20.464,17.24,26.752
			l196.976,134.672c-0.576,1.456-1.016,2.936-1.48,4.416c-0.032,0.112-0.072,0.216-0.104,0.32c-0.792,2.576-1.416,5.176-1.848,7.816
			c-0.064,0.36-0.152,0.72-0.208,1.08c-0.408,2.816-0.672,5.648-0.672,8.52c0,0.032,0.008,0.056,0.008,0.088
			c0,0.016-0.008,0.032-0.008,0.056c0,14.504,5.496,28.648,15.896,41.344c-0.336,0.344-0.64,0.712-0.968,1.064
			c-0.152,0.168-0.328,0.304-0.48,0.472c-0.04,0.048-0.056,0.112-0.096,0.152c-8.888,9.888-14.352,22.912-14.352,37.216
			c0,14.152,5.344,27.056,14.064,36.896c0.04,0.048,0.048,0.112,0.096,0.16c0.184,0.208,0.392,0.376,0.576,0.584
			c0.992,1.08,2.024,2.12,3.096,3.12c0.344,0.32,0.696,0.64,1.048,0.952c1.104,0.984,2.256,1.912,3.44,2.8
			c0.336,0.248,0.664,0.504,1,0.752c1.264,0.912,2.576,1.76,3.912,2.56c0.28,0.168,0.56,0.352,0.848,0.512
			c1.448,0.832,2.944,1.592,4.464,2.296c0.2,0.088,0.392,0.2,0.592,0.288c1.624,0.728,3.288,1.368,4.992,1.936
			c0.12,0.04,0.24,0.096,0.36,0.136c1.736,0.568,3.504,1.048,5.312,1.44c0.096,0.024,0.2,0.056,0.296,0.08
			c1.728,0.368,3.488,0.648,5.264,0.848c0.176,0.024,0.352,0.064,0.528,0.08c1.928,0.2,3.88,0.312,5.864,0.312
			c9.984,0,19.344-2.672,27.464-7.296c0.032-0.016,0.056-0.032,0.088-0.048c1.584-0.904,3.12-1.888,4.608-2.944
			c0.2-0.144,0.392-0.296,0.592-0.44c1.304-0.952,2.568-1.952,3.784-3.008c0.288-0.248,0.56-0.512,0.84-0.768
			c1.12-1.016,2.192-2.064,3.224-3.16c0.128-0.136,0.28-0.256,0.408-0.4c0.04-0.048,0.056-0.112,0.096-0.16
			c7.784-8.512,12.992-19.408,14.304-31.48c8.36,1.016,16.688,1.704,24.84,1.704c9.648,0,19.048-0.672,28.128-1.92l36.208,22.568
			c2.256,15.456,15.6,27.352,31.664,27.352c17.648,0,32-14.352,32-32s-14.352-32-32-32h-5.456l-5.112-3.624
			c7.768-4.072,14.784-8.696,21.008-13.76c0.36-0.216,0.752-0.344,1.088-0.624c10.112-8.44,17.536-17.816,22.304-27.776
			c0.04-0.08,0.072-0.168,0.112-0.248c1.168-2.464,2.16-4.968,2.992-7.504c0.16-0.488,0.32-0.976,0.472-1.472
			c0.656-2.208,1.184-4.432,1.584-6.68c0.12-0.64,0.264-1.264,0.36-1.904c0.392-2.776,0.648-5.576,0.648-8.408
			c0-2.832-0.256-5.632-0.656-8.416C481.795,336.218,481.643,335.586,481.531,334.954z M245.987,71.994
			c0.056-0.072,0.096-0.152,0.144-0.224c1.048-1.608,2.176-3.152,3.304-4.696c0.808-1.112,1.624-2.216,2.464-3.296
			c1.152-1.48,2.312-2.952,3.528-4.376c0.968-1.128,1.984-2.2,2.992-3.296c2.104-2.288,4.288-4.488,6.56-6.592
			c0.944-0.88,1.888-1.752,2.864-2.608c1.488-1.296,2.992-2.568,4.544-3.792c0.856-0.672,1.744-1.304,2.616-1.96
			c2.888-2.152,5.864-4.176,8.928-6.064c0.912-0.56,1.808-1.128,2.736-1.664c1.776-1.032,3.584-2.016,5.408-2.952
			c1.024-0.52,2.064-1,3.104-1.496c2.928-1.392,5.912-2.664,8.944-3.824c1.432-0.544,2.856-1.096,4.312-1.584
			c1.616-0.544,3.256-1.056,4.904-1.528c2.112-0.608,4.24-1.152,6.4-1.648c1.464-0.336,2.936-0.672,4.416-0.952
			c2.816-0.536,5.656-0.976,8.536-1.304c1.048-0.12,2.104-0.232,3.16-0.32c3.536-0.312,7.088-0.544,10.696-0.544
			c3.648,0,7.24,0.224,10.8,0.544c1.768,0.168,3.528,0.416,5.288,0.664c1.024,0.136,2.04,0.304,3.056,0.464
			c-11.632,6.088-22.856,12.864-33.544,20.264c-10.392,7.192-18.112,13.448-24.92,18.96c-11.712,9.488-19.448,15.76-31.816,19.312
			c-10.4,2.984-21.416,3.392-33.464,1.176C243.227,76.386,244.579,74.162,245.987,71.994z M234.931,93.53
			c7.504,1.648,14.808,2.496,21.88,2.496c7.992,0,15.688-1.056,23.032-3.168c15.488-4.448,25.184-12.312,37.464-22.256
			c6.584-5.336,14.056-11.384,23.952-18.24c15.024-10.4,31.208-19.464,48.088-27.064c36.616,14.048,64.592,45.48,73.824,84.2
			c-41.944-9.84-84.744-12.296-127.432-7.096c-37.76,4.592-74.352,15.064-108.992,31.072
			C227.187,119.418,230.035,105.978,234.931,93.53z M241.211,192.25c-0.208,0.344-0.376,0.72-0.584,1.072
			c-6.872-12.944-11.48-27.296-13.192-42.544c34.888-16.912,71.944-27.832,110.216-32.496c43.016-5.232,86.152-2.44,128.312,8.28
			c0.04,0.4,0.056,0.76,0.088,1.152c0.264,3.168,0.496,6.336,0.496,9.56c0,23.472-6.872,45.32-18.568,63.832
			c-29.24,2.048-55.664-1.96-78.504-12.072c-8.576-3.8-17.016-8.576-25.192-13.2c-22.288-12.608-45.336-25.672-69.496-16.504
			C256.787,166.146,247.419,181.85,241.211,192.25z M295.203,245.554c-0.112-0.056-0.232-0.096-0.344-0.152
			c-0.808-0.384-1.616-0.76-2.416-1.16c-1.344-0.688-2.632-1.464-3.944-2.2c-1.856-1.032-3.712-2.056-5.512-3.184
			c-2.016-1.272-3.968-2.64-5.904-4.024c-1.28-0.912-2.536-1.84-3.784-2.808c-2.04-1.584-4.056-3.2-5.992-4.912
			c-0.872-0.768-1.704-1.6-2.552-2.4c-1.952-1.832-3.904-3.664-5.728-5.616c-0.032-0.04-0.064-0.072-0.104-0.112
			c-2.376-2.552-4.64-5.208-6.792-7.952c-0.04-0.048-0.088-0.096-0.128-0.144c-0.512-0.656-0.952-1.376-1.456-2.048
			c1.32-2.88,2.792-5.696,4.408-8.392c5.664-9.504,12.72-21.32,25.504-26.16c17.096-6.496,35.112,3.68,55.944,15.472
			c8.504,4.816,17.304,9.792,26.592,13.904c21.584,9.552,45.8,14.312,72.368,14.016c-0.864,0.952-1.704,1.928-2.6,2.856
			c-1,1.032-2.016,2.04-3.04,3.04c-1.832,1.768-3.704,3.48-5.648,5.128c-1.096,0.928-2.224,1.824-3.352,2.712
			c-1.952,1.544-3.936,3.056-5.984,4.48c-1.296,0.896-2.624,1.72-3.952,2.56c-1.976,1.264-3.96,2.512-6.016,3.664
			c-1.6,0.888-3.248,1.68-4.888,2.496c-1.88,0.936-3.752,1.904-5.688,2.744c-2.016,0.872-4.088,1.608-6.152,2.368
			c-1.672,0.624-3.32,1.296-5.032,1.848c-2.48,0.792-5.016,1.408-7.552,2.032c-1.4,0.352-2.768,0.784-4.184,1.08
			c-2.96,0.624-5.976,1.04-9,1.44c-1.072,0.144-2.12,0.376-3.208,0.488c-4.128,0.424-8.304,0.656-12.52,0.656
			c-4.344,0-8.648-0.296-12.912-0.76c-1.304-0.144-2.576-0.368-3.864-0.552c-0.008,0-0.008,0-0.016,0
			c-2.96-0.424-5.904-0.936-8.808-1.568c-1.288-0.28-2.56-0.592-3.832-0.92c-0.264-0.064-0.528-0.136-0.792-0.208
			c-2.632-0.688-5.232-1.488-7.808-2.352c-0.984-0.328-1.968-0.64-2.944-1c-0.64-0.232-1.288-0.456-1.92-0.704
			C300.779,248.106,297.971,246.874,295.203,245.554z M223.867,307.13c-0.432,0.576-0.896,1.144-1.304,1.728L26.923,175.106
			c-5.608-3.84-9.344-9.64-10.528-16.336c-1.192-6.704,0.336-13.44,4.288-18.976c4.056-5.68,10.104-9.336,17.016-10.28
			c1.168-0.168,2.336-0.24,3.496-0.24c5.68,0,11.144,1.912,15.664,5.544l188.504,151.544c-1.64,1.168-3.216,2.368-4.744,3.6
			c-0.056,0.04-0.112,0.08-0.168,0.128l-0.024,0.016l-0.864,0.72c-0.168,0.12-0.376,0.168-0.536,0.304
			c-3.944,3.288-7.408,6.752-10.552,10.304c-0.152,0.168-0.328,0.336-0.48,0.512C226.283,303.282,224.947,305.026,223.867,307.13z
			 M250.803,371.994c-0.064,0.016-0.12,0.048-0.184,0.064c-1.44,0.424-2.84,0.92-4.224,1.456c-0.384,0.144-0.776,0.264-1.152,0.424
			c-0.504,0.208-1,0.432-1.496,0.648c-0.008,0-0.016,0.008-0.024,0.008c-1.536,0.688-3.048,1.424-4.512,2.24
			c-8.296-9.912-12.64-20.744-12.664-31.64c0-2.264,0.216-4.504,0.568-6.72c0.096-0.584,0.224-1.144,0.344-1.712
			c0.312-1.576,0.712-3.136,1.192-4.68c0.24-0.768,0.48-1.544,0.76-2.288c0.448-1.216,1-2.408,1.544-3.6
			c0.296-0.624,0.552-1.28,0.864-1.888c0.08-0.128,0.216-0.208,0.288-0.344c1.28-2.432,2.872-4.912,4.864-7.584
			c0.096-0.136,0.128-0.296,0.2-0.44c0.768-1.008,1.56-1.96,2.368-2.896c0.76-0.896,1.688-1.832,2.616-2.784c0,0,0,0,0.008,0
			l0.064-0.064c0.536-0.56,1.128-1.048,1.68-1.6c9.592,11.128,14.64,23.632,14.64,36.536
			C258.547,354.33,255.939,363.354,250.803,371.994z M278.387,387.85c0.16,0.048,0.32,0.096,0.472,0.144
			c1.552,0.496,3.056,1.144,4.536,1.832c0.504,0.24,0.992,0.504,1.488,0.768c0.384,0.208,0.776,0.408,1.152,0.624
			c0.928,0.52,1.84,1.064,2.72,1.664c0.312,0.216,0.6,0.48,0.904,0.712c-13.528,9.872-33.272,9.864-46.784-0.032
			c0.104-0.064,0.192-0.16,0.296-0.232c1.624-1.168,3.352-2.128,5.096-3.032c0.224-0.12,0.44-0.248,0.672-0.368
			c1.256-0.592,2.544-1.096,3.856-1.552c0.624-0.232,1.256-0.44,1.896-0.64C262.379,385.49,270.731,385.506,278.387,387.85z
			 M289.019,458.05c-0.752,0.528-1.56,0.952-2.344,1.416c-1.136,0.688-2.296,1.328-3.496,1.904
			c-1.264,0.576-2.552,1.096-3.872,1.536c-0.576,0.2-1.168,0.368-1.752,0.544c-7.584,2.144-15.816,2.072-23.392-0.272
			c-0.256-0.08-0.52-0.152-0.768-0.24c-1.552-0.52-3.064-1.168-4.544-1.88c-0.848-0.416-1.672-0.872-2.488-1.352
			c-1.072-0.616-2.144-1.24-3.16-1.968c-0.2-0.144-0.368-0.32-0.568-0.472c13.496-9.792,33.304-9.696,46.856,0.4
			C289.315,457.786,289.187,457.938,289.019,458.05z M300.267,445.858c-9.776-7.728-21.896-12.088-34.472-12.088
			c-12.248,0-24.104,4.16-33.768,11.544c-3.392-5.848-5.48-12.552-5.48-19.792c0-7.352,2.144-14.152,5.632-20.064
			c9.72,7.56,21.712,11.816,34.12,11.816c12.392,0,24.368-4.248,34.08-11.784c0.192,0.328,0.408,0.648,0.592,0.992
			c0.464,0.84,0.968,1.648,1.376,2.528c0.656,1.432,1.152,2.952,1.64,4.472c0.288,0.888,0.608,1.768,0.832,2.68
			c0.384,1.584,0.592,3.224,0.776,4.872c0.168,1.496,0.456,2.952,0.456,4.488C306.051,432.978,303.859,439.89,300.267,445.858z
			 M434.547,433.274h8c8.824,0,16,7.176,16,16c0,8.824-7.176,16-16,16c-8.824,0-16-7.176-16-16c0-2.76-1.424-5.328-3.768-6.792
			l-25.104-15.648c0.336-0.088,0.64-0.216,0.968-0.304c4.784-1.288,9.408-2.76,13.896-4.376c0.848-0.296,1.768-0.504,2.608-0.816
			l14.776,10.464C431.275,432.762,432.891,433.274,434.547,433.274z M414.411,404.594c-0.392,0.096-0.792,0.16-1.176,0.312
			c-11.568,4.712-24.36,8.136-38.024,10.184c-0.048,0.008-0.088,0.032-0.136,0.04c-9.168,1.352-18.68,2.144-28.528,2.144
			c-8.336,0-16.864-0.584-25.448-1.736c-0.28-1.552-0.64-3.064-1.048-4.568c-0.032-0.12-0.064-0.248-0.096-0.368
			c-0.392-1.4-0.84-2.776-1.336-4.128c-0.088-0.24-0.168-0.48-0.264-0.712c-0.488-1.288-1.024-2.544-1.6-3.784
			c-0.128-0.272-0.264-0.544-0.392-0.816c-0.592-1.208-1.208-2.392-1.88-3.552c-0.152-0.256-0.304-0.504-0.456-0.76
			c-0.704-1.168-1.424-2.312-2.208-3.416c-0.112-0.152-0.232-0.296-0.336-0.456c-1.176-1.632-2.44-3.184-3.784-4.68
			c-0.04-0.048-0.056-0.112-0.096-0.152c-0.152-0.168-0.328-0.312-0.48-0.472c-1.024-1.104-2.08-2.152-3.192-3.168
			c-0.304-0.28-0.6-0.552-0.912-0.824c-1.168-1.032-2.384-2-3.64-2.928c-0.224-0.168-0.448-0.352-0.672-0.512
			c-0.184-0.136-0.368-0.272-0.552-0.4c-0.896-0.632-1.832-1.208-2.768-1.784c-0.512-0.32-1.024-0.64-1.552-0.944
			c-0.872-0.496-1.768-0.96-2.672-1.416c-0.64-0.32-1.272-0.632-1.928-0.928c-0.12-0.056-0.24-0.12-0.368-0.176
			c-0.008,0-0.016-0.008-0.024-0.008c-0.728-0.32-1.472-0.616-2.216-0.912c-0.752-0.296-1.504-0.568-2.272-0.832
			c-0.832-0.288-1.664-0.568-2.512-0.808c-0.88-0.256-1.776-0.472-2.672-0.688c-0.768-0.184-1.536-0.376-2.32-0.528
			c-1.08-0.208-2.176-0.352-3.28-0.504c-0.472-0.064-0.936-0.168-1.408-0.216c-0.016,0-0.032-0.008-0.048-0.008
			c-0.152-0.016-0.312-0.024-0.464-0.04c-0.728-0.072-1.464-0.088-2.192-0.128c3.264-8.04,5.088-16.312,5.088-24.792
			c0-16.752-6.344-32.736-18.368-46.736c0.6-0.408,1.128-0.8,1.76-1.224c1.656-1.104,3.312-2.2,5.08-3.232
			c0.424-0.248,0.784-0.568,1.152-0.88c21.52-12.224,50.472-19.784,82.376-19.784c36.184,0,68.608,9.704,90.624,24.952
			c-12.192,14.064-18.624,30.168-18.624,47.048s6.432,32.984,18.624,47.048C430.475,396.962,422.859,401.098,414.411,404.594z
			 M465.995,351.818c-0.128,0.848-0.32,1.664-0.496,2.488c-0.248,1.184-0.552,2.352-0.896,3.52
			c-0.352,1.152-0.696,2.304-1.128,3.408c-0.104,0.272-0.24,0.528-0.344,0.8c-3.264,7.92-8.456,14.624-13.8,19.944
			c-9.696-11.168-14.784-23.736-14.784-36.704c0-12.968,5.088-25.536,14.784-36.696c5.344,5.312,10.536,12.016,13.8,19.944
			c0.104,0.264,0.24,0.528,0.344,0.792c0.432,1.104,0.776,2.256,1.128,3.408c0.344,1.168,0.648,2.336,0.896,3.52
			c0.176,0.824,0.368,1.64,0.496,2.488c0.328,2.16,0.552,4.336,0.552,6.544S466.323,349.658,465.995,351.818z"/>
	</g>
</g>
<g>
	<g>
		<path d="M386.539,317.386v-20.112h-16v17.44c-5.712-0.728-10.904-1.104-16-1.288v-16.152h-16v16.144
			c-5.888,0.192-11.168,0.592-16,1.152v-17.296h-16v19.928c-5.36,1.128-10.416,2.392-15.52,3.696l-2.448,0.624l3.936,15.504
			l2.464-0.624c3.92-1,7.704-1.96,11.568-2.84v11.712h16v-14.576c4.808-0.616,10.032-1.072,16-1.28v15.856h16v-15.84
			c5.088,0.192,10.24,0.608,16.008,1.408v14.432h16v-11.536c4.28,0.92,8.848,1.968,14.032,3.288l3.936-15.504
			C397.835,319.826,391.923,318.474,386.539,317.386z"/>
	</g>
</g>
<g>
</g>
<g>
</g>
<g>
</g>
<g>
</g>
<g>
</g>
<g>
</g>
<g>
</g>
<g>
</g>
<g>
</g>
<g>
</g>
<g>
</g>
<g>
</g>
<g>
</g>
<g>
</g>
<g>
</g>
</svg>
