<?xml version="1.0" encoding="iso-8859-1"?>
<!-- Generator: Adobe Illustrator 19.0.0, SVG Export Plug-In . SVG Version: 6.00 Build 0)  -->
<svg fill="#273582" width="128" height="128" xmlns="http://www.w3.org/2000/svg" xmlns:xlink="http://www.w3.org/1999/xlink" x="0px" y="0px"
	 viewBox="0 0 484.792 484.792" style="enable-background:new 0 0 484.792 484.792;" xml:space="preserve">
<g>
	<g>
		<path d="M376,258.396H104c-4.424,0-8,3.576-8,8v208c0,4.424,3.576,8,8,8h272c4.424,0,8-3.576,8-8v-208
			C384,261.972,380.424,258.396,376,258.396z M368,466.396H112v-192h256V466.396z"/>
	</g>
</g>
<g>
	<g>
		<path d="M440,298.396h-24v-24c0-97.048-78.952-176-176-176s-176,78.952-176,176v24H40c-22.056,0-40,17.944-40,40v64
			c0,22.056,17.944,40,40,40h32c4.424,0,8-3.576,8-8v-128v-32c0-88.224,71.776-160,160-160s160,71.776,160,160v32v128
			c0,4.424,3.576,8,8,8h32c22.056,0,40-17.944,40-40v-64C480,316.34,462.056,298.396,440,298.396z M64,426.396H40
			c-13.232,0-24-10.768-24-24v-64c0-13.232,10.768-24,24-24h24V426.396z M464,402.396c0,13.232-10.768,24-24,24h-24v-112h24
			c13.232,0,24,10.768,24,24V402.396z"/>
	</g>
</g>
<g>
	<g>
		<path d="M283.576,363.236l-64-32c-2.48-1.232-5.424-1.12-7.784,0.352c-2.352,1.464-3.792,4.032-3.792,6.808v64
			c0,2.776,1.44,5.344,3.8,6.808c1.28,0.792,2.736,1.192,4.2,1.192c1.224,0,2.448-0.28,3.576-0.84l64-32
			c2.712-1.36,4.424-4.128,4.424-7.16C288,367.364,286.288,364.596,283.576,363.236z M224,389.452V351.34l38.112,19.056L224,389.452
			z"/>
	</g>
</g>
<g>
	<g>
		<path d="M240,290.396c-44.112,0-80,35.888-80,80s35.888,80,80,80s80-35.888,80-80S284.112,290.396,240,290.396z M240,434.396
			c-35.288,0-64-28.712-64-64c0-35.288,28.712-64,64-64c35.288,0,64,28.712,64,64C304,405.684,275.288,434.396,240,434.396z"/>
	</g>
</g>
<g>
	<g>
		<path d="M452.792,99.996c-2.416-1.824-5.664-2.104-8.368-0.76c-2.712,1.36-4.424,4.128-4.424,7.16v41.472
			c-2.512-0.896-5.184-1.472-8-1.472c-13.232,0-24,10.768-24,24s10.768,24,24,24s24-10.768,24-24v-48l19.2,14.4l9.592-12.8
			L452.792,99.996z M432,178.396c-4.416,0-8-3.584-8-8s3.584-8,8-8c4.416,0,8,3.584,8,8S436.416,178.396,432,178.396z"/>
	</g>
</g>
<g>
	<g>
		<path d="M44.792,99.996c-2.424-1.832-5.664-2.112-8.376-0.76c-2.704,1.36-4.416,4.128-4.416,7.16v41.472
			c-2.512-0.896-5.184-1.472-8-1.472c-13.232,0-24,10.768-24,24s10.768,24,24,24s24-10.768,24-24v-48l19.2,14.4l9.592-12.8
			L44.792,99.996z M24,178.396c-4.416,0-8-3.584-8-8s3.584-8,8-8s8,3.584,8,8S28.416,178.396,24,178.396z"/>
	</g>
</g>
<g>
	<g>
		<path d="M380.8,3.996c-2.424-1.824-5.672-2.104-8.376-0.76c-2.712,1.36-4.424,4.128-4.424,7.16v41.472
			c-2.512-0.896-5.184-1.472-8-1.472c-13.232,0-24,10.768-24,24s10.768,24,24,24s24-10.768,24-24v-48l19.2,14.4l9.6-12.8
			L380.8,3.996z M360,82.396c-4.416,0-8-3.584-8-8s3.584-8,8-8c4.416,0,8,3.584,8,8S364.416,82.396,360,82.396z"/>
	</g>
</g>
<g>
	<g>
		<path d="M108.8,3.996c-2.424-1.824-5.672-2.104-8.376-0.76C97.712,4.596,96,7.364,96,10.396v41.472
			c-2.512-0.896-5.184-1.472-8-1.472c-13.232,0-24,10.768-24,24s10.768,24,24,24s24-10.768,24-24v-48l19.2,14.4l9.6-12.8
			L108.8,3.996z M88,82.396c-4.416,0-8-3.584-8-8s3.584-8,8-8s8,3.584,8,8S92.416,82.396,88,82.396z"/>
	</g>
</g>
<g>
	<g>
		<path d="M244.8,3.996c-2.424-1.824-5.672-2.104-8.376-0.76c-2.712,1.36-4.424,4.128-4.424,7.16v25.472
			c-2.512-0.896-5.184-1.472-8-1.472c-13.232,0-24,10.768-24,24s10.768,24,24,24s24-10.768,24-24v-32l19.2,14.4l9.6-12.8
			L244.8,3.996z M224,66.396c-4.416,0-8-3.584-8-8s3.584-8,8-8s8,3.584,8,8S228.416,66.396,224,66.396z"/>
	</g>
</g>
<g>
</g>
<g>
</g>
<g>
</g>
<g>
</g>
<g>
</g>
<g>
</g>
<g>
</g>
<g>
</g>
<g>
</g>
<g>
</g>
<g>
</g>
<g>
</g>
<g>
</g>
<g>
</g>
<g>
</g>
</svg>
